<?xml version="1.0" encoding="UTF-8" standalone="no"?>
<svg
   xmlns:dc="http://purl.org/dc/elements/1.1/"
   xmlns:cc="http://creativecommons.org/ns#"
   xmlns:rdf="http://www.w3.org/1999/02/22-rdf-syntax-ns#"
   xmlns:svg="http://www.w3.org/2000/svg"
   xmlns="http://www.w3.org/2000/svg"
   xmlns:xlink="http://www.w3.org/1999/xlink"
   xmlns:sodipodi="http://sodipodi.sourceforge.net/DTD/sodipodi-0.dtd"
   xmlns:inkscape="http://www.inkscape.org/namespaces/inkscape"
   width="200pt"
   height="200pt"
   viewBox="0 0 200 200"
   version="1.1"
   id="svg680"
   sodipodi:docname="window_icon.svg"
   inkscape:version="1.0.1 (3bc2e813f5, 2020-09-07)"
   inkscape:export-filename="C:\Users\guilh\Desktop\image.png"
   inkscape:export-xdpi="23.040001"
   inkscape:export-ydpi="23.040001">
  <sodipodi:namedview
     pagecolor="#ffffff"
     bordercolor="#666666"
     borderopacity="1"
     objecttolerance="10"
     gridtolerance="10"
     guidetolerance="10"
     inkscape:pageopacity="0"
     inkscape:pageshadow="2"
     inkscape:window-width="2478"
     inkscape:window-height="1055"
     id="namedview682"
     showgrid="false"
     inkscape:zoom="1.7010041"
     inkscape:cx="-5.4443442"
     inkscape:cy="108.10202"
     inkscape:window-x="74"
     inkscape:window-y="-8"
     inkscape:window-maximized="1"
     inkscape:current-layer="axes_1"
     inkscape:document-rotation="0" />
  <metadata
     id="metadata2">
    <rdf:RDF>
      <cc:Work>
        <dc:type
           rdf:resource="http://purl.org/dc/dcmitype/StillImage" />
        <dc:date>2022-01-28T10:00:50.070455</dc:date>
        <dc:format>image/svg+xml</dc:format>
        <dc:creator>
          <cc:Agent>
            <dc:title>Matplotlib v3.5.1, https://matplotlib.org/</dc:title>
          </cc:Agent>
        </dc:creator>
        <dc:title />
      </cc:Work>
    </rdf:RDF>
  </metadata>
  <defs
     id="defs6">
    <linearGradient
       inkscape:collect="always"
       id="linearGradient3794">
      <stop
         style="stop-color:#d7dbdd;stop-opacity:1;"
         offset="0"
         id="stop3790" />
      <stop
         style="stop-color:#d7dbdd;stop-opacity:0;"
         offset="1"
         id="stop3792" />
    </linearGradient>
    <rect
       x="76.052233"
       y="240.39289"
       width="65.024842"
       height="35.508134"
       id="rect3757" />
    <style
       type="text/css"
       id="style4">*{stroke-linejoin: round; stroke-linecap: butt}</style>
    <clipPath
       id="pc5976ab345-4">
      <rect
         x="54.063358"
         y="166.04977"
         width="189.21379"
         height="110.19263"
         id="rect669-8" />
    </clipPath>
    <rect
       x="76.052231"
       y="240.39288"
       width="65.024841"
       height="35.508133"
       id="rect3757-1" />
    <rect
       x="76.052231"
       y="240.39288"
       width="65.024841"
       height="35.508133"
       id="rect3770" />
    <linearGradient
       inkscape:collect="always"
       xlink:href="#linearGradient3794"
       id="linearGradient3796"
       x1="78.869195"
       y1="254.51512"
       x2="131.69795"
       y2="254.51512"
       gradientUnits="userSpaceOnUse" />
    <clipPath
       id="pc5976ab345-8">
      <rect
         x="54.063358"
         y="166.04977"
         width="189.21379"
         height="110.19263"
         id="rect669-5" />
    </clipPath>
    <clipPath
       id="pc5976ab345-2">
      <rect
         x="54.063358"
         y="166.04977"
         width="189.21379"
         height="110.19263"
         id="rect669-57" />
    </clipPath>
    <filter
       inkscape:collect="always"
       style="color-interpolation-filters:sRGB"
       id="filter1526"
       x="-0.0097205974"
       width="1.0194412"
       y="-0.01567136"
       height="1.0313427">
      <feGaussianBlur
         inkscape:collect="always"
         stdDeviation="0.76621945"
         id="feGaussianBlur1528" />
    </filter>
    <filter
       inkscape:collect="always"
       style="color-interpolation-filters:sRGB"
       id="filter1611"
       x="-0.009153522"
       width="1.018307"
       y="-0.017408431"
       height="1.0348169">
      <feGaussianBlur
         inkscape:collect="always"
         stdDeviation="0.24950945"
         id="feGaussianBlur1613" />
    </filter>
  </defs>
  <g
     id="figure_1">
    <g
       id="axes_1"
       transform="matrix(0.73006212,0,0,0.72702891,140.63229,32.33302)"
       style="stroke-width:6.1767;stroke-miterlimit:4;stroke-dasharray:none">
      <g
         id="line2d_10-17"
         transform="matrix(1.4291385,0,0,1.4355422,-267.55779,-223.91632)"
         style="opacity:1;fill:none;fill-opacity:1;stroke:#d7dbdd;stroke-width:17.9681;stroke-linecap:round;stroke-linejoin:round;stroke-miterlimit:4;stroke-dasharray:none;stroke-opacity:1;paint-order:normal;filter:url(#filter1526)">
        <path
           style="color:#000000;font-style:normal;font-variant:normal;font-weight:normal;font-stretch:normal;font-size:medium;line-height:normal;font-family:sans-serif;font-variant-ligatures:normal;font-variant-position:normal;font-variant-caps:normal;font-variant-numeric:normal;font-variant-alternates:normal;font-variant-east-asian:normal;font-feature-settings:normal;font-variation-settings:normal;text-indent:0;text-align:start;text-decoration:none;text-decoration-line:none;text-decoration-style:solid;text-decoration-color:#000000;letter-spacing:normal;word-spacing:normal;text-transform:none;writing-mode:lr-tb;direction:ltr;text-orientation:mixed;dominant-baseline:auto;baseline-shift:baseline;text-anchor:start;white-space:normal;shape-padding:0;shape-margin:0;inline-size:0;clip-rule:nonzero;display:inline;overflow:visible;visibility:visible;opacity:1;isolation:auto;mix-blend-mode:normal;color-interpolation:sRGB;color-interpolation-filters:linearRGB;solid-color:#000000;solid-opacity:1;vector-effect:none;fill:#d7dbdd;fill-opacity:1;fill-rule:nonzero;stroke:none;stroke-width:17.9681;stroke-linecap:round;stroke-linejoin:round;stroke-miterlimit:4;stroke-dasharray:none;stroke-dashoffset:0;stroke-opacity:1;paint-order:normal;color-rendering:auto;image-rendering:auto;shape-rendering:auto;text-rendering:auto;enable-background:accumulate;stop-color:#000000;stop-opacity:1"
           d="m 122.72461,162.47461 a 8.5843583,8.5843583 0 0 0 -2.60156,0.40625 l -0.79688,0.25195 a 8.5843583,8.5843583 0 0 0 -0.10547,0.0352 l -1.19336,0.39844 a 8.5843583,8.5843583 0 0 0 -1.67382,0.76562 l -0.94336,0.56055 -0.74219,0.42773 a 8.5843583,8.5843583 0 0 0 -0.50977,0.31836 l -0.43945,0.29492 -0.10547,0.0566 -0.5332,0.26563 -0.36719,-0.0645 -0.4375,-0.0957 a 8.5843583,8.5843583 0 0 0 -0.28906,-0.0586 l -3.54297,-0.64258 a 8.5843583,8.5843583 0 0 0 -1.9375,-0.12695 l -0.19336,0.008 -0.19141,-0.008 a 8.5843583,8.5843583 0 0 0 -2.8125,0.33984 l -0.20898,0.0625 0.82227,-0.006 a 8.5843583,8.5843583 0 0 0 -3.84571,0.93164 l -0.525389,0.26758 0.529299,-0.13476 a 8.5843583,8.5843583 0 0 0 -3.242189,1.61914 l 0.761718,-0.35547 a 8.5843583,8.5843583 0 0 0 -1.003906,0.55469 8.5843583,8.5843583 0 0 0 -0.15625,0.13867 l 0.130859,-0.12305 a 8.5843583,8.5843583 0 0 0 -0.160156,0.10547 l -0.58789,0.39648 a 8.5843583,8.5843583 0 0 0 -0.01953,0.0137 l -0.390625,0.26758 a 8.5843583,8.5843583 0 0 0 -1.488281,1.28711 l 0.208984,-0.23437 a 8.5843583,8.5843583 0 0 0 -0.550781,0.42187 l -3.898437,3.2461 0.521484,-0.25782 a 8.5843583,8.5843583 0 0 0 -1.582031,1.00977 l -0.335938,0.26953 0.837891,-0.32812 a 8.5843583,8.5843583 0 0 0 -2.001953,1.11132 l -0.556641,0.41602 0.335938,-0.14453 a 8.5843583,8.5843583 0 0 0 -0.824219,0.41015 l -0.488281,-0.31835 -0.519532,-0.35157 a 8.5843583,8.5843583 0 0 0 -1.115234,-0.63672 l -0.738281,-0.35351 -0.931641,-0.45313 a 8.5843583,8.5843583 0 0 0 -1.703125,-0.61718 l -0.130859,-0.0312 -0.144531,-0.0527 a 8.5843583,8.5843583 0 0 0 -2.726563,-0.51367 l -0.767578,-0.0195 a 8.5843583,8.5843583 0 0 0 -1.289062,0.0664 l -0.576172,0.0742 a 8.5843583,8.5843583 0 0 0 -0.117188,0.0156 l -0.382812,0.0527 a 8.5843583,8.5843583 0 0 0 -3.396485,1.25 l -0.576172,0.36524 a 8.5843583,8.5843583 0 0 0 -0.002,0.002 l -0.765625,0.48633 a 8.5843583,8.5843583 0 0 0 -0.710937,0.5039 l -0.384766,0.30079 a 8.5843583,8.5843583 0 0 0 -1.568359,1.60937 l -1.150391,1.54102 a 8.5843583,8.5843583 0 0 0 -0.464844,0.68945 l -0.765625,1.26367 a 8.5843583,8.5843583 0 0 0 -0.535156,1.03906 l -1.720703,3.97852 a 8.5843583,8.5843583 0 0 0 -0.335938,0.91602 l -1.527343,5.03906 a 8.5843583,8.5843583 0 0 0 -0.164063,0.62109 l -1.52539,6.83789 a 8.5843583,8.5843583 0 0 0 -0.07617,0.38086 l -1.142578,6.49805 a 8.5843583,8.5843583 0 0 0 -0.01367,0.0801 l -1.898438,11.43554 a 8.5834999,8.5834999 0 0 0 -0.755859,8.84375 l 0.189453,0.38477 a 8.5843583,8.5843583 0 0 0 9.169922,4.66015 l 0.191406,-0.0332 a 8.5843583,8.5843583 0 0 0 5.03125,-2.85742 l 0.38086,-0.44141 a 8.5843583,8.5843583 0 0 0 1.699218,-3.07812 l 0.38086,-1.23828 a 8.5843583,8.5843583 0 0 0 0.261718,-1.11328 l 2.277344,-13.70899 1.101563,-6.26367 1.414062,-6.33398 1.292969,-4.26172 0.271484,-0.63086 a 8.5843583,8.5843583 0 0 0 2.070313,0.86914 l 0.179687,0.0488 0.207032,0.0918 a 8.5843583,8.5843583 0 0 0 2.830078,0.68946 l 0.435546,0.0293 0.632813,0.0937 a 8.5843583,8.5843583 0 0 0 3.386719,-0.17578 l 0.318359,-0.0801 0.107422,-0.0117 a 8.5843583,8.5843583 0 0 0 2.486328,-0.6211 l -1.029297,0.1582 a 8.5843583,8.5843583 0 0 0 1.5,-0.37109 8.5843583,8.5843583 0 0 0 0.269532,-0.13672 8.5843583,8.5843583 0 0 0 0.002,-0.002 8.5843583,8.5843583 0 0 0 0.248047,-0.13477 l -0.212891,0.125 a 8.5843583,8.5843583 0 0 0 0.337891,-0.10351 8.5843583,8.5843583 0 0 0 0.205078,-0.0918 l -0.15625,0.0781 a 8.5843583,8.5843583 0 0 0 2.308593,-1.18555 l -0.451171,0.19531 a 8.5843583,8.5843583 0 0 0 0.53125,-0.25391 8.5843583,8.5843583 0 0 0 0.214843,-0.1621 l -0.171875,0.14062 a 8.5843583,8.5843583 0 0 0 1.146485,-0.7207 l 0.433593,-0.32422 -0.6875,0.26953 a 8.5843583,8.5843583 0 0 0 2.251954,-1.30469 l 0.625,-0.5039 -0.457032,0.22461 a 8.5843583,8.5843583 0 0 0 1.69336,-1.09961 l 4.396488,-3.65821 0.47852,-0.33398 a 8.5843583,8.5843583 0 0 0 0.98828,-0.80664 8.5843583,8.5843583 0 0 0 0.35547,-0.20313 l -0.17774,0.0469 -0.041,0.0254 a 8.5843583,8.5843583 0 0 0 0.0234,-0.0215 l -1.18945,0.30274 a 8.5843583,8.5843583 0 0 0 1.28711,-0.44141 l -1.60352,0.01 a 8.5843583,8.5843583 0 0 0 1.82422,-0.20703 h 0.002 a 8.5843583,8.5843583 0 0 0 0.42187,-0.10547 l 0.0273,0.004 a 8.5843583,8.5843583 0 0 0 0.0273,-0.0195 8.5843583,8.5843583 0 0 0 0.0703,-0.0195 l -0.041,-0.002 a 8.5843583,8.5843583 0 0 0 0.72265,-0.60156 l -0.70508,0.65625 2.02344,0.36718 0.44727,0.0977 a 8.5843583,8.5843583 0 0 0 0.30859,0.0606 l 2.16992,0.38867 a 8.5843583,8.5843583 0 0 0 2.55078,0.0723 l 0.14844,-0.0176 -0.0508,-0.002 a 8.5843583,8.5843583 0 0 0 2.57422,-0.31836 l 0.79101,-0.22265 a 8.5843583,8.5843583 0 0 0 1.51172,-0.58399 l 2.17578,-1.08789 a 8.5843583,8.5843583 0 0 0 0.23047,-0.11914 l 0.29883,-0.16015 0.9082,1.76367 1.9668,4 a 8.5843583,8.5843583 0 0 0 0.002,0.004 l 1.00196,2.03711 a 8.5843583,8.5843583 0 0 0 0.33007,0.60743 l 1.4043,2.35351 a 8.5843583,8.5843583 0 0 0 0.21485,0.3418 l 0.60351,0.9082 a 8.5843583,8.5843583 0 0 0 1.2207,1.46094 l 0.60157,0.57812 a 8.5843583,8.5843583 0 0 0 1.22656,0.97461 l 1.00391,0.66016 a 8.5843583,8.5843583 0 0 0 4.19531,1.39062 l 0.60351,0.0371 a 8.5843583,8.5843583 0 0 0 1.07227,-0.002 l 1.14062,-0.0742 0.0332,0.0781 0.87109,2.2832 0.66211,2.06445 1.50977,5.875 1.38086,6.72656 a 8.5843583,8.5843583 0 0 0 0.0371,0.17383 l 0.81445,3.58399 a 8.5843583,8.5843583 0 0 0 0.35937,1.18164 l 0.40625,1.05664 a 8.5843583,8.5843583 0 0 0 1.54883,2.56836 l 0.20508,0.23242 a 8.5843583,8.5843583 0 0 0 3.93945,2.55469 l 0.40625,0.125 a 8.5843583,8.5843583 0 0 0 7.01563,-0.89063 l 0.20312,-0.125 a 8.5843583,8.5843583 0 0 0 3.30469,-3.72851 l 0.48828,3.34765 0.79492,7.71485 0.60157,8.31836 1.02734,20.89062 a 8.5843583,8.5843583 0 0 0 0.002,0.0254 l 0.41406,7.91797 a 8.5843583,8.5843583 0 0 0 0.0547,0.61719 l 0.20508,1.6543 a 8.5843583,8.5843583 0 0 0 15.64453,3.72265 l 0.20508,-0.30859 a 8.5843583,8.5843583 0 0 0 1.30469,-3.16797 l 0.20703,-1.07617 a 8.5843583,8.5843583 0 0 0 0.14453,-1.20508 l 1.23437,-25.64844 0.8086,-10.51172 0.38867,-3.52344 0.79688,-6.14648 0.7832,-4.61523 0.57812,-2.92774 0.37305,-1.66601 0.52539,0.80664 a 8.5843583,8.5843583 0 0 0 0.61328,0.83008 l 0.37891,0.45117 0.80078,0.98633 a 8.5843583,8.5843583 0 0 0 0.56055,0.625 l 0.63086,0.63671 a 8.5843583,8.5843583 0 0 0 2.24804,1.63477 l 0.41993,0.21094 a 8.5843583,8.5843583 0 0 0 1.01171,0.42968 l 0.63086,0.22266 a 8.5843583,8.5843583 0 0 0 4.91016,0.23242 l 0.8418,-0.20898 a 8.5843583,8.5843583 0 0 0 3.20898,-1.56055 l 0.8418,-0.65625 a 8.5843583,8.5843583 0 0 0 1.60156,-1.63281 l 1.89844,-2.54102 a 8.5843583,8.5843583 0 0 0 0.36914,-0.5332 l 0.23047,-0.36328 0.31836,0.38672 a 8.5843583,8.5843583 0 0 0 0.3789,0.42969 l 0.85156,0.9082 a 8.5843583,8.5843583 0 0 0 1.65821,1.37109 l 0.375,0.23828 1.01562,0.66602 a 8.5843583,8.5843583 0 0 0 1.67578,0.85156 l 1.07032,0.40235 a 8.5843583,8.5843583 0 0 0 0.12304,0.0449 l 0.64063,0.23047 a 8.5843583,8.5843583 0 0 0 3.70117,0.46875 l 1.71289,-0.15821 a 8.5843583,8.5843583 0 0 0 2.63477,-0.67969 l 0.0469,-0.0215 0.79102,1.69531 a 8.5834999,8.5834999 0 0 0 11.40625,4.15039 8.5834999,8.5834999 0 0 0 4.15039,-11.4082 l -1.29492,-2.77734 a 8.5843583,8.5843583 0 0 0 -0.36133,-0.69141 l -1.08008,-1.85156 a 8.5843583,8.5843583 0 0 0 -0.28125,-0.45313 l -0.43164,-0.64453 a 8.5843583,8.5843583 0 0 0 -0.33203,-0.46289 l -0.64844,-0.83984 a 8.5843583,8.5843583 0 0 0 -1.36133,-1.40625 l 0.29883,0.36133 a 8.5843583,8.5843583 0 0 0 -0.37109,-0.41797 8.5843583,8.5843583 0 0 0 -0.69336,-0.50196 l 0.54101,0.34375 a 8.5843583,8.5843583 0 0 0 -0.87695,-0.76562 l -0.64453,-0.49219 a 8.5843583,8.5843583 0 0 0 -0.13281,-0.0996 l -0.42969,-0.31445 a 8.5843583,8.5843583 0 0 0 -3.49609,-1.51172 l 0.0996,0.0312 a 8.5843583,8.5843583 0 0 0 -0.10546,-0.0312 8.5843583,8.5843583 0 0 0 -0.004,-0.002 h -0.006 a 8.5843583,8.5843583 0 0 0 -0.92773,-0.21875 l -1.07618,-0.18946 a 8.5843583,8.5843583 0 0 0 -4.31054,0.34571 l -0.0723,0.0234 -1.13476,0.28711 a 8.5843583,8.5843583 0 0 0 -1.2793,0.43164 l -1.10938,-1.3496 a 8.5843583,8.5843583 0 0 0 -0.90234,-0.94336 l -2.76367,-2.48047 a 8.5843583,8.5843583 0 0 0 -1.54492,-1.10352 l -0.63672,-0.35547 a 8.5843583,8.5843583 0 0 0 -2.78906,-0.97656 l -0.3379,-0.0957 a 8.5843583,8.5843583 0 0 0 -2.99414,-0.29883 l -0.63476,0.0488 a 8.5843583,8.5843583 0 0 0 -2.17969,0.45703 l -0.42383,0.14844 a 8.5843583,8.5843583 0 0 0 -0.36523,0.13867 l 0.69336,-0.15625 a 8.5843583,8.5843583 0 0 0 -1.05274,0.31054 8.5843583,8.5843583 0 0 0 -0.18359,0.0859 l 0.14648,-0.0742 a 8.5843583,8.5843583 0 0 0 -2.94336,1.82617 l -0.84765,0.80469 a 8.5843583,8.5843583 0 0 0 -0.37695,0.38086 l -0.80665,0.86719 -0.15039,0.13476 a 8.5843583,8.5843583 0 0 0 -0.82226,0.85743 8.5843583,8.5843583 0 0 0 -0.35352,-0.38282 l -0.24218,-0.24609 -0.29493,-0.38867 a 8.5843583,8.5843583 0 0 0 -1.28906,-1.36133 l -0.83594,-0.70898 a 8.5843583,8.5843583 0 0 0 -0.19726,-0.16211 l -1.67188,-1.33399 a 8.5843583,8.5843583 0 0 0 -3.14453,-1.58398 l -1.25195,-0.33399 a 8.5843583,8.5843583 0 0 0 -4.59375,0.0488 l 0.082,-0.0254 -0.46094,0.0488 a 8.5843583,8.5843583 0 0 0 -2.16015,0.51172 l -0.83204,0.3164 a 8.5843583,8.5843583 0 0 0 -0.18945,0.0742 l -1.04101,0.42188 a 8.5843583,8.5843583 0 0 0 -3.06641,2.12109 l -1.04102,1.125 a 8.5843583,8.5843583 0 0 0 -0.90625,1.16797 l -0.41601,0.64258 a 8.5843583,8.5843583 0 0 0 -0.3711,0.6289 l -0.51562,-1.36523 a 8.5843583,8.5843583 0 0 0 -0.42773,-0.95508 l -0.61719,-1.17578 a 8.5843583,8.5843583 0 0 0 -0.44531,-0.75391 l -0.82227,-1.24218 a 8.5843583,8.5843583 0 0 0 -0.67383,-0.88672 l -0.41016,-0.47266 a 8.5843583,8.5843583 0 0 0 -4.00585,-2.59375 l -1.23047,-0.36914 a 8.5843583,8.5843583 0 0 0 -3.4375,-0.3125 l -0.61524,0.0684 a 8.5843583,8.5843583 0 0 0 -4.09375,1.5918 l -1.26758,0.92383 -0.73632,-1.93164 a 8.5843583,8.5843583 0 0 0 -0.13282,-0.32813 L 154.5,189.63672 a 8.5843583,8.5843583 0 0 0 -0.49609,-0.98047 l -1.01368,-1.71484 A 8.5843583,8.5843583 0 0 0 152.71289,186.5 l -0.40625,-0.59961 a 8.5843583,8.5843583 0 0 0 -1.65625,-1.82227 l -0.80859,-0.66601 a 8.5843583,8.5843583 0 0 0 -1.31055,-0.89063 l -0.80664,-0.44726 a 8.5843583,8.5843583 0 0 0 -1.43555,-0.62695 l -0.40429,-0.13477 a 8.5843583,8.5843583 0 0 0 -1.72852,-0.38477 l -0.29883,-0.0332 -0.90625,-0.17187 a 8.5843583,8.5843583 0 0 0 -2.05664,-0.13672 l -0.68359,-1.38672 -2,-4.07227 a 8.5843583,8.5843583 0 0 0 -0.0723,-0.14257 l -1.40039,-2.71876 a 8.5843583,8.5843583 0 0 0 -0.64844,-1.0625 l -1.99804,-2.79101 a 8.5843583,8.5843583 0 0 0 -0.92383,-1.08984 l -1.5957,-1.58985 a 8.5843583,8.5843583 0 0 0 -1.7793,-1.35742 l 0.41015,0.33984 a 8.5843583,8.5843583 0 0 0 -0.54101,-0.41406 8.5843583,8.5843583 0 0 0 -0.72461,-0.35742 l 0.52344,0.21875 a 8.5843583,8.5843583 0 0 0 -3.10742,-1.27149 l -0.99414,-0.19335 a 8.5843583,8.5843583 0 0 0 -1.53516,-0.15625 l -0.0332,-0.002 0.16015,0.0234 a 8.5843583,8.5843583 0 0 0 -1.22656,-0.0879 z m -30.664063,30.27734 -0.0039,0.002 -0.169922,0.0996 a 8.5843583,8.5843583 0 0 0 0.441406,-0.17383 z m 21.474613,-26.44726 0.71875,0.0195 a 8.5843583,8.5843583 0 0 0 -0.86133,0.0215 z m -26.455082,10.01367 a 8.5843583,8.5843583 0 0 0 -0.486328,0.14844 l 0.671875,-0.10352 a 8.5843583,8.5843583 0 0 0 -0.923828,0.19336 8.5843583,8.5843583 0 0 0 -0.164063,0.0625 l -0.01758,-0.0117 a 8.5843583,8.5843583 0 0 0 -0.03711,0.0117 l 0.03125,-0.0156 -0.03516,-0.0234 0.183593,-0.0488 0.05859,-0.0293 0.105469,-0.0156 z m -1.128906,0.30859 a 8.5843583,8.5843583 0 0 0 -0.167969,0.10157 8.5843583,8.5843583 0 0 0 -0.189453,0.0664 l 0.09961,-0.01 a 8.5843583,8.5843583 0 0 0 -0.01758,0.0117 l 0.05859,-0.0156 0.06641,-0.006 0.01172,-0.004 h 0.0078 a 8.5843583,8.5843583 0 0 0 -0.0059,0.004 l 0.01367,-0.002 0.06445,0.01 a 8.5843583,8.5843583 0 0 0 -0.152344,0.0254 8.5843583,8.5843583 0 0 0 -0.04492,0.0195 l 0.03711,-0.0195 a 8.5843583,8.5843583 0 0 0 -0.107422,0.0195 8.5843583,8.5843583 0 0 0 -0.726562,0.5293 l 0.626953,-0.50976 a 8.5843583,8.5843583 0 0 0 -0.150391,0.0312 8.5843583,8.5843583 0 0 0 -0.0059,0.002 8.5843583,8.5843583 0 0 0 -1.105469,0.53906 l 1.005859,-0.59375 0.31836,-0.0293 0.002,-0.002 0.130859,-0.10547 z m -0.363281,0.16993 a 8.5843583,8.5843583 0 0 0 -0.171875,0.0664 l 0.132812,-0.0332 z m 0.55664,-0.0547 h 0.0059 l 0.0098,0.004 a 8.5843583,8.5843583 0 0 0 -0.0059,0 8.5843583,8.5843583 0 0 0 -0.0098,-0.004 z m -0.28125,0.0625 0.330078,0.0215 0.341797,0.0508 a 8.5843583,8.5843583 0 0 0 -0.671875,-0.0723 z m 0.609375,0.041 0.0918,0.006 0.583985,0.25391 a 8.5843583,8.5843583 0 0 0 -0.675782,-0.25977 z m 33.158204,1.4043 a 8.5843583,8.5843583 0 0 0 1.88672,1.18945 l -0.0293,-0.006 -0.8457,-0.35547 -0.0957,-0.0977 0.0527,0.0742 z m 3.19531,1.44336 a 8.5843583,8.5843583 0 0 0 0.19922,0.006 l -0.17773,-0.002 z m 17.39258,0.86523 0.42383,0.0449 a 8.5843583,8.5843583 0 0 0 -0.0254,0.002 8.5843583,8.5843583 0 0 0 -0.004,0 8.5843583,8.5843583 0 0 0 -0.47266,-0.0254 z m -2.88477,0.42383 -0.19336,0.0566 a 8.5843583,8.5843583 0 0 0 -1.15429,0.42774 l 0.98828,-0.46094 z m -31.40039,1.46094 a 8.5843583,8.5843583 0 0 0 0.73829,0.002 l -0.33204,0.0156 0.008,0.002 z m -0.44726,0.80859 -0.0254,0.0176 -0.22071,0.10352 a 8.5843583,8.5843583 0 0 0 0.2461,-0.1211 z m -30.466799,6.83008 a 8.5843583,8.5843583 0 0 0 0.876953,0.26563 l -0.30664,-0.0742 0.128906,0.0625 z m 67.742189,7.16602 -0.19141,0.0898 -0.0156,0.004 a 8.5843583,8.5843583 0 0 0 0.20703,-0.0937 z m 0.44922,0.30273 -1.46875,0.41406 -0.60938,-0.11328 a 8.5843583,8.5843583 0 0 0 0.0176,-0.002 8.5843583,8.5843583 0 0 0 0.11719,0.0195 l -0.0606,-0.0195 a 8.5843583,8.5843583 0 0 0 2.00391,-0.29883 z m 75.71484,6.78711 a 8.5843583,8.5843583 0 0 0 -0.51758,0.37305 l 0.43164,-0.33594 z m -10.78711,7.63867 a 8.5843583,8.5843583 0 0 0 0.71289,0.16797 l -0.0273,0.002 -0.17774,-0.0254 z m -140.429686,2.14844 2.652344,5.37695 a 8.5834999,8.5834999 0 0 0 -6.509766,-4.70507 z m -9.037109,1.57617 a 8.5834999,8.5834999 0 0 0 -0.207031,0.11328 l 0.07813,-0.0918 z m 165.519535,1.39258 a 8.5843583,8.5843583 0 0 0 0.2207,0.25391 l -0.0293,-0.0215 z m 5.52929,1.05469 -1.1289,0.39258 0.0195,-0.0156 0.17969,-0.10937 0.22265,-0.0566 a 8.5843583,8.5843583 0 0 0 0.70703,-0.21094 z m -3.40039,0.25976 a 8.5843583,8.5843583 0 0 0 0.10547,0.0312 l -0.0234,-0.004 z"
           id="path1512"
           transform="translate(-0.39843,-0.33101)" />
      </g>
      <g
         id="line2d_10-1"
         transform="matrix(1.4953494,0,0,1.5030003,-281.46481,-269.74978)"
         style="fill:none;fill-opacity:1;stroke:#d7dbdd;stroke-width:20.6004;stroke-linecap:butt;stroke-linejoin:round;stroke-miterlimit:4;stroke-dasharray:none;stroke-opacity:1">
        <g
           aria-label="OSA"
           transform="matrix(1.6361537,0,0,1.6361537,-57.905507,-135.10182)"
           id="text3755-3"
           style="font-style:normal;font-weight:normal;font-size:27.4672px;line-height:1.25;font-family:sans-serif;white-space:pre;shape-inside:url(#rect3757-1);fill:#000000;fill-opacity:1;stroke:#d7dbdd;stroke-width:12.5908;stroke-linecap:butt;stroke-linejoin:round;stroke-miterlimit:4;stroke-dasharray:none;stroke-opacity:1;filter:url(#filter1611)">
          <g
             id="g1593"
             style="opacity:1">
            <path
               style="color:#000000;font-style:normal;font-variant:normal;font-weight:normal;font-stretch:normal;font-size:27.4672px;line-height:1.25;font-family:'MV Boli';-inkscape-font-specification:'MV Boli, Normal';font-variant-ligatures:normal;font-variant-position:normal;font-variant-caps:normal;font-variant-numeric:normal;font-variant-alternates:normal;font-variant-east-asian:normal;font-feature-settings:normal;font-variation-settings:normal;text-indent:0;text-align:start;text-decoration:none;text-decoration-line:none;text-decoration-style:solid;text-decoration-color:#000000;letter-spacing:normal;word-spacing:normal;text-transform:none;writing-mode:lr-tb;direction:ltr;text-orientation:mixed;dominant-baseline:auto;baseline-shift:baseline;text-anchor:start;white-space:normal;shape-padding:0;shape-margin:0;inline-size:0;clip-rule:nonzero;display:inline;overflow:visible;visibility:visible;isolation:auto;mix-blend-mode:normal;color-interpolation:sRGB;color-interpolation-filters:linearRGB;solid-color:#000000;solid-opacity:1;vector-effect:none;fill:#000000;fill-opacity:1;fill-rule:nonzero;stroke:none;stroke-width:12.5908;stroke-linecap:butt;stroke-linejoin:round;stroke-miterlimit:4;stroke-dasharray:none;stroke-dashoffset:0;stroke-opacity:1;color-rendering:auto;image-rendering:auto;shape-rendering:auto;text-rendering:auto;enable-background:accumulate;stop-color:#000000;stop-opacity:1"
               d="m 79.124018,257.86805 c 0.160941,-0.67059 0.39341,-1.35459 0.697409,-2.052 0.303999,-0.70635 0.661645,-1.4127 1.072938,-2.11905 0.411293,-0.70635 0.867291,-1.39928 1.367995,-2.07881 0.509645,-0.68847 1.046114,-1.35012 1.609406,-1.98494 0.572233,-0.64376 1.157878,-1.24729 1.756935,-1.81058 0.607998,-0.57223 1.215996,-1.09529 1.823994,-1.56917 0.286117,-0.19671 0.54988,-0.32635 0.791291,-0.38894 0.241411,-0.0626 0.496234,-0.0939 0.764468,-0.0939 0.286117,0 0.540939,0.0447 0.764468,0.13411 0.223529,0.0805 0.447057,0.23247 0.670586,0.456 0.07153,0.0805 0.147529,0.152 0.227999,0.21459 0.08047,0.0626 0.156471,0.0939 0.228,0.0939 0.01788,0 0.04023,-0.0179 0.06706,-0.0536 0.02682,-0.0447 0.05364,-0.0939 0.08047,-0.14753 0.03577,-0.0537 0.076,-0.10731 0.120705,-0.16094 0.04471,-0.0626 0.09835,-0.10731 0.160941,-0.13412 0.151999,-0.0715 0.330822,-0.11623 0.536468,-0.13412 0.214588,-0.0268 0.429176,-0.0402 0.643763,-0.0402 0.402351,0 0.791291,0.076 1.166819,0.228 0.375529,0.14305 0.706351,0.3487 0.992468,0.61693 0.679527,0.63483 1.193642,1.39483 1.542347,2.28 0.357646,0.88517 0.536469,1.8374 0.536469,2.85669 0,0.912 -0.134117,1.89553 -0.402352,2.95058 -0.232469,0.92988 -0.567762,1.83294 -1.005879,2.70917 -0.429175,0.87623 -0.93882,1.69882 -1.528935,2.46775 -0.581175,0.76894 -1.233878,1.47082 -1.958111,2.10564 -0.715292,0.63483 -1.47976,1.18024 -2.293404,1.63623 -0.813645,0.456 -1.663054,0.80918 -2.548227,1.05953 -0.885173,0.25929 -1.783758,0.38894 -2.695755,0.38894 -0.849409,0 -1.613877,-0.12965 -2.293404,-0.38894 -0.670586,-0.25929 -1.242819,-0.62588 -1.7167,-1.09976 -0.464939,-0.47388 -0.822585,-1.03717 -1.072937,-1.68988 -0.241411,-0.6527 -0.362117,-1.37693 -0.362117,-2.1727 0,-0.33976 0.01788,-0.67952 0.05365,-1.01929 0.04471,-0.3487 0.111765,-0.70187 0.201176,-1.05952 z m 2.26658,0.89858 c -0.09835,0.44706 -0.147529,0.84941 -0.147529,1.20706 0,0.5007 0.08494,0.94329 0.254823,1.32776 0.178823,0.37553 0.424704,0.69294 0.737645,0.95223 0.321881,0.25035 0.701879,0.44259 1.139996,0.5767 0.447057,0.12518 0.93435,0.18777 1.461877,0.18777 0.62588,0 1.260701,-0.0983 1.904464,-0.29506 0.652703,-0.19671 1.287525,-0.48282 1.904464,-0.85835 0.616939,-0.37553 1.211526,-0.82705 1.783759,-1.35458 0.572233,-0.52753 1.099761,-1.12659 1.582582,-1.79717 0.491763,-0.67059 0.925409,-1.39929 1.300937,-2.18611 0.384469,-0.78683 0.692939,-1.62283 0.925409,-2.508 0.08941,-0.32188 0.151999,-0.65717 0.187764,-1.00587 0.04471,-0.34871 0.06706,-0.684 0.06706,-1.00588 0,-0.51859 -0.05812,-1.01482 -0.174352,-1.4887 -0.116235,-0.47389 -0.308469,-0.89412 -0.576704,-1.26071 -0.268235,-0.36659 -0.62141,-0.65717 -1.059526,-0.87176 -0.438116,-0.22353 -0.974585,-0.33529 -1.609406,-0.33529 -0.08941,0 -0.16094,0.0402 -0.214587,0.1207 -0.04471,0.0715 -0.09388,0.16542 -0.147529,0.28165 -0.04471,0.0983 -0.09835,0.20118 -0.160941,0.30847 -0.05365,0.10729 -0.129646,0.20565 -0.227999,0.29506 -0.08941,0.0805 -0.205646,0.14752 -0.348705,0.20117 -0.134117,0.0537 -0.303999,0.0805 -0.509645,0.0805 -0.151999,0 -0.286117,-0.0313 -0.402352,-0.0939 -0.116235,-0.0715 -0.232469,-0.16541 -0.348704,-0.28164 -0.05365,-0.0537 -0.09835,-0.0939 -0.134118,-0.12071 -0.03577,-0.0358 -0.076,-0.0537 -0.120705,-0.0537 -0.08047,0 -0.187764,0.0358 -0.321881,0.1073 -0.125176,0.0715 -0.259293,0.15647 -0.402352,0.25482 -0.134117,0.0984 -0.268234,0.20118 -0.402351,0.30847 -0.125176,0.10729 -0.223529,0.20118 -0.295058,0.28165 -0.607998,0.62588 -1.215996,1.30988 -1.823994,2.05199 -0.599057,0.73317 -1.153408,1.49317 -1.663053,2.27999 -0.509645,0.78682 -0.956703,1.58258 -1.341172,2.38729 -0.375528,0.79576 -0.648233,1.5647 -0.818115,2.30681 z m 9.763731,-13.70677 z"
               id="path1595" />
            <path
               style="color:#000000;font-style:normal;font-variant:normal;font-weight:normal;font-stretch:normal;font-size:27.4672px;line-height:1.25;font-family:'MV Boli';-inkscape-font-specification:'MV Boli, Normal';font-variant-ligatures:normal;font-variant-position:normal;font-variant-caps:normal;font-variant-numeric:normal;font-variant-alternates:normal;font-variant-east-asian:normal;font-feature-settings:normal;font-variation-settings:normal;text-indent:0;text-align:start;text-decoration:none;text-decoration-line:none;text-decoration-style:solid;text-decoration-color:#000000;letter-spacing:normal;word-spacing:normal;text-transform:none;writing-mode:lr-tb;direction:ltr;text-orientation:mixed;dominant-baseline:auto;baseline-shift:baseline;text-anchor:start;white-space:normal;shape-padding:0;shape-margin:0;inline-size:0;clip-rule:nonzero;display:inline;overflow:visible;visibility:visible;isolation:auto;mix-blend-mode:normal;color-interpolation:sRGB;color-interpolation-filters:linearRGB;solid-color:#000000;solid-opacity:1;vector-effect:none;fill:#d7dbdd;fill-opacity:1;fill-rule:nonzero;stroke:none;stroke-width:12.5908;stroke-linecap:butt;stroke-linejoin:round;stroke-miterlimit:4;stroke-dasharray:none;stroke-dashoffset:0;stroke-opacity:1;color-rendering:auto;image-rendering:auto;shape-rendering:auto;text-rendering:auto;enable-background:accumulate;stop-color:#000000;stop-opacity:1"
               d="m 89.007812,239.47461 c -0.75797,0 -1.553959,0.0921 -2.34375,0.29687 -1.207485,0.31305 -2.066941,0.80652 -2.777343,1.29493 a 6.2960297,6.2960297 0 0 0 -0.304688,0.22265 c -0.773844,0.60314 -1.527197,1.25239 -2.265625,1.94727 -0.742204,0.69789 -1.459177,1.43723 -2.15039,2.21484 a 6.2960297,6.2960297 0 0 0 -0.0039,0.004 c -0.687582,0.77489 -1.339961,1.58174 -1.958984,2.41797 a 6.2960297,6.2960297 0 0 0 -0.0098,0.01 c -0.630322,0.85544 -1.211688,1.73877 -1.740234,2.64649 -0.528111,0.90697 -0.997518,1.83537 -1.40625,2.7832 -0.429523,0.98699 -0.779535,2.00388 -1.033203,3.05078 l 0.002,-0.0215 c -0.0031,0.0122 -0.0048,0.0249 -0.0078,0.0371 -0.0016,0.007 -0.0043,0.0129 -0.0059,0.0195 a 6.2960297,6.2960297 0 0 0 -0.115234,0.62304 6.2960297,6.2960297 0 0 0 0,0.004 c -0.07471,0.36606 -0.161157,0.72852 -0.208985,1.10156 a 6.2960297,6.2960297 0 0 0 -0.01563,0.14258 c -0.05864,0.55704 -0.08789,1.11707 -0.08789,1.67774 0,1.43237 0.221782,2.92205 0.751953,4.35546 a 6.2960297,6.2960297 0 0 0 0.02734,0.0723 c 0.534578,1.39373 1.375758,2.74168 2.457031,3.84375 a 6.2960297,6.2960297 0 0 0 0.04297,0.043 c 1.117811,1.11781 2.487922,1.97489 3.896484,2.51953 a 6.2960297,6.2960297 0 0 0 0.02734,0.01 c 1.495819,0.57077 3.047115,0.80273 4.537109,0.80273 1.498736,0 2.999213,-0.22083 4.435547,-0.63867 1.352071,-0.38486 2.661018,-0.92635 3.886719,-1.61328 1.208047,-0.67703 2.339329,-1.48928 3.376953,-2.40821 1.033823,-0.90781 1.974015,-1.91874 2.804687,-3.01562 0.830956,-1.0857 1.552561,-2.25276 2.156251,-3.48047 0.63178,-1.2665 1.12894,-2.59904 1.47266,-3.9707 0.3726,-1.46992 0.5957,-2.96244 0.5957,-4.48633 0,-1.74769 -0.32433,-3.53435 -0.99024,-5.19141 -0.67214,-1.69346 -1.73902,-3.28589 -3.08398,-4.54297 -0.864681,-0.80931 -1.919067,-1.44934 -2.998047,-1.86914 -1.084454,-0.42945 -2.288374,-0.67383 -3.460937,-0.67383 -0.415852,1e-5 -0.830339,0.0333 -1.242188,0.0781 -0.07886,0.007 -0.182497,0.0605 -0.263672,0.0703 -0.683382,-0.15987 -1.390315,-0.37695 -1.996094,-0.37695 z m 2.898438,0.50781 0.205078,0.0781 c -0.04153,-0.0166 -0.07764,-0.006 -0.11914,-0.0215 -0.03819,-0.0144 -0.04709,-0.0427 -0.08594,-0.0566 z m -3.056641,0.4043 c -0.03814,0.0163 -0.06576,0.0473 -0.103515,0.0644 -0.03489,0.0158 -0.06266,0.009 -0.09766,0.0254 z m 4.642579,0.61914 c 0.403049,0.20205 0.80779,0.41514 1.044921,0.59961 0.09902,0.077 0.166486,0.1585 0.253907,0.23828 -0.311147,-0.30481 -0.879386,-0.5446 -1.298828,-0.83789 z m -7.160157,1.26953 c -0.08311,0.0997 -0.164,0.21943 -0.246093,0.32813 -0.01091,0.015 -0.03035,0.03 -0.04102,0.0449 z m 9.121094,0.45703 0.0918,0.0449 c -0.01636,-0.008 -0.03246,-0.009 -0.04883,-0.0176 -0.01471,-0.007 -0.02826,-0.0201 -0.04297,-0.0274 z m -12.931641,2.6211 c -0.04678,0.0481 -0.09009,0.10573 -0.136718,0.15429 -0.02038,0.0225 -0.03181,0.0272 -0.05273,0.0508 z m 18.167966,8.30273 -0.0176,0.1582 c 0.004,-0.0326 0.002,-0.067 0.006,-0.0996 0.002,-0.0196 0.01,-0.039 0.0117,-0.0586 z m -0.36133,1.96094 -0.0234,0.0859 c 0.004,-0.0148 0.004,-0.0301 0.008,-0.0449 0.004,-0.0142 0.0119,-0.0268 0.0156,-0.041 z m -1.333979,3.62109 -0.02344,0.0527 c 0.0055,-0.0113 0.0082,-0.0238 0.01367,-0.0352 0.0029,-0.006 0.0069,-0.0115 0.0098,-0.0176 z m -1.873047,3.15234 -0.03125,0.0449 c 0.0067,-0.009 0.01085,-0.0201 0.01758,-0.0293 0.0041,-0.006 0.0096,-0.01 0.01367,-0.0156 z m -8.539063,6.35352 -0.02344,0.006 c 0.0028,-8.5e-4 0.005,-0.003 0.0078,-0.004 0.0049,-0.001 0.01068,-4.4e-4 0.01563,-0.002 z"
               id="path1597" />
          </g>
          <g
             id="g1599"
             style="opacity:1">
            <path
               style="color:#000000;font-style:normal;font-variant:normal;font-weight:normal;font-stretch:normal;font-size:27.4672px;line-height:1.25;font-family:'MV Boli';-inkscape-font-specification:'MV Boli, Normal';font-variant-ligatures:normal;font-variant-position:normal;font-variant-caps:normal;font-variant-numeric:normal;font-variant-alternates:normal;font-variant-east-asian:normal;font-feature-settings:normal;font-variation-settings:normal;text-indent:0;text-align:start;text-decoration:none;text-decoration-line:none;text-decoration-style:solid;text-decoration-color:#000000;letter-spacing:normal;word-spacing:normal;text-transform:none;writing-mode:lr-tb;direction:ltr;text-orientation:mixed;dominant-baseline:auto;baseline-shift:baseline;text-anchor:start;white-space:normal;shape-padding:0;shape-margin:0;inline-size:0;clip-rule:nonzero;display:inline;overflow:visible;visibility:visible;isolation:auto;mix-blend-mode:normal;color-interpolation:sRGB;color-interpolation-filters:linearRGB;solid-color:#000000;solid-opacity:1;vector-effect:none;fill:#000000;fill-opacity:1;fill-rule:nonzero;stroke:none;stroke-width:12.5908;stroke-linecap:butt;stroke-linejoin:round;stroke-miterlimit:4;stroke-dasharray:none;stroke-dashoffset:0;stroke-opacity:1;color-rendering:auto;image-rendering:auto;shape-rendering:auto;text-rendering:auto;enable-background:accumulate;stop-color:#000000;stop-opacity:1"
               d="m 98.356422,261.5965 c 0.303999,0.1073 0.612468,0.23248 0.925408,0.37553 0.321881,0.14306 0.652705,0.28165 0.99247,0.41577 0.33976,0.12517 0.69293,0.23247 1.05952,0.32188 0.37553,0.0894 0.77342,0.13411 1.19365,0.13411 0.49176,0 0.98799,-0.0581 1.4887,-0.17435 0.5007,-0.11623 0.98799,-0.28611 1.46187,-0.50964 0.48283,-0.23247 0.9433,-0.50965 1.38141,-0.83153 0.43812,-0.33082 0.84047,-0.71082 1.20706,-1.14 0.40235,-0.45599 0.73764,-0.86728 1.00587,-1.23387 0.26824,-0.37553 0.48283,-0.70636 0.64377,-0.99247 0.16988,-0.29506 0.29058,-0.54541 0.36211,-0.75106 0.0715,-0.21459 0.1073,-0.39788 0.1073,-0.54988 0,-0.22353 -0.076,-0.41576 -0.228,-0.5767 -0.152,-0.16988 -0.35765,-0.30847 -0.61694,-0.41576 -0.25035,-0.1073 -0.53647,-0.1833 -0.85835,-0.228 -0.32188,-0.0537 -0.65717,-0.0805 -1.00588,-0.0805 -0.20565,0 -0.44706,0.009 -0.72423,0.0268 -0.27718,0.009 -0.55883,0.0223 -0.84494,0.0402 -0.28612,0.009 -0.5633,0.0179 -0.83153,0.0268 -0.26823,0.009 -0.5007,0.0134 -0.69741,0.0134 -0.29505,0 -0.60352,-0.0313 -0.92541,-0.0939 -0.31294,-0.0715 -0.62141,-0.1833 -0.9254,-0.3353 -0.304,-0.15199 -0.58565,-0.35764 -0.84494,-0.61693 -0.25929,-0.25929 -0.47388,-0.58118 -0.64376,-0.96565 -0.0537,-0.12517 -0.10284,-0.2727 -0.14753,-0.44258 -0.0447,-0.16989 -0.0671,-0.35318 -0.0671,-0.54989 0,-0.21459 0.0134,-0.41576 0.0402,-0.60352 0.0357,-0.19671 0.076,-0.38447 0.12071,-0.56329 0.12517,-0.44706 0.33082,-0.89859 0.61694,-1.35459 0.29505,-0.46494 0.64376,-0.91647 1.04611,-1.35458 0.41129,-0.43812 0.85388,-0.86283 1.32776,-1.27412 0.48282,-0.41129 0.97458,-0.79575 1.47529,-1.1534 0.50965,-0.36659 1.00588,-0.69294 1.4887,-0.97906 0.49177,-0.29506 0.94777,-0.54541 1.368,-0.75105 0.59011,-0.28612 1.18917,-0.49177 1.79717,-0.61694 0.61694,-0.13412 1.22494,-0.20118 1.82399,-0.20118 0.35765,0 0.69741,0.0492 1.01929,0.14753 0.32188,0.0894 0.60353,0.22353 0.84494,0.40235 0.25035,0.17883 0.44706,0.40236 0.59012,0.67059 0.14305,0.25929 0.21458,0.55882 0.21458,0.89858 0,0.19671 -0.0224,0.36212 -0.0671,0.49624 -0.0447,0.13411 -0.10285,0.24588 -0.17435,0.33529 -0.0715,0.0805 -0.152,0.13858 -0.24141,0.17435 -0.0805,0.0358 -0.16541,0.0537 -0.25482,0.0537 -0.24141,0 -0.46494,-0.0268 -0.67059,-0.0805 -0.19671,-0.0537 -0.38894,-0.11178 -0.5767,-0.17435 -0.18777,-0.0715 -0.37553,-0.13412 -0.56329,-0.18777 -0.18777,-0.0626 -0.39341,-0.0939 -0.61694,-0.0939 -0.66165,0 -1.3367,0.13412 -2.02517,0.40235 -0.67953,0.25929 -1.34564,0.59459 -1.99835,1.00588 -0.64376,0.40235 -1.25623,0.85388 -1.8374,1.35458 -0.57223,0.50071 -1.08635,0.988 -1.54235,1.46188 -0.24141,0.25035 -0.42024,0.50071 -0.53647,0.75106 -0.10729,0.25035 -0.16094,0.48729 -0.16094,0.71082 0,0.33082 0.14306,0.59011 0.42917,0.77788 0.28612,0.18776 0.63483,0.28164 1.04612,0.28164 0.24141,0 0.51411,-0.004 0.81811,-0.0134 0.304,-0.009 0.61247,-0.0179 0.92541,-0.0268 0.32188,-0.0179 0.63035,-0.0313 0.92541,-0.0402 0.304,-0.0179 0.57223,-0.0268 0.8047,-0.0268 0.55435,0 1.08635,0.0805 1.596,0.24141 0.50965,0.152 0.96117,0.38 1.35458,0.684 0.39341,0.304 0.70635,0.684 0.93882,1.13999 0.24141,0.44706 0.36212,0.96118 0.36212,1.54235 0,0.35765 -0.0537,0.71976 -0.16094,1.08635 -0.10729,0.36659 -0.25482,0.73764 -0.44259,1.11317 -0.18777,0.36659 -0.40235,0.73317 -0.64376,1.09976 -0.24141,0.35765 -0.49624,0.71082 -0.76447,1.05953 -0.48282,0.62588 -1.02376,1.216 -1.62282,1.77035 -0.59011,0.55435 -1.22046,1.03717 -1.89105,1.44846 -0.67059,0.41129 -1.38141,0.73765 -2.13246,0.97906 -0.74212,0.24141 -1.50659,0.36211 -2.29341,0.36211 -0.33976,0 -0.68846,-0.0313 -1.04611,-0.0939 -0.35765,-0.0626 -0.71082,-0.15648 -1.05953,-0.28164 -0.3487,-0.11624 -0.679524,-0.26377 -0.992464,-0.44259 -0.303999,-0.18777 -0.572233,-0.39788 -0.804703,-0.63035 -0.23247,-0.23247 -0.420234,-0.4873 -0.563292,-0.76447 -0.134117,-0.28611 -0.201176,-0.59458 -0.201176,-0.92541 0,-0.16094 0.02235,-0.31294 0.06706,-0.456 0.05365,-0.152 0.178823,-0.228 0.375528,-0.228 z m 6.813148,-16.53664 z"
               id="path1601" />
            <path
               style="color:#000000;font-style:normal;font-variant:normal;font-weight:normal;font-stretch:normal;font-size:27.4672px;line-height:1.25;font-family:'MV Boli';-inkscape-font-specification:'MV Boli, Normal';font-variant-ligatures:normal;font-variant-position:normal;font-variant-caps:normal;font-variant-numeric:normal;font-variant-alternates:normal;font-variant-east-asian:normal;font-feature-settings:normal;font-variation-settings:normal;text-indent:0;text-align:start;text-decoration:none;text-decoration-line:none;text-decoration-style:solid;text-decoration-color:#000000;letter-spacing:normal;word-spacing:normal;text-transform:none;writing-mode:lr-tb;direction:ltr;text-orientation:mixed;dominant-baseline:auto;baseline-shift:baseline;text-anchor:start;white-space:normal;shape-padding:0;shape-margin:0;inline-size:0;clip-rule:nonzero;display:inline;overflow:visible;visibility:visible;isolation:auto;mix-blend-mode:normal;color-interpolation:sRGB;color-interpolation-filters:linearRGB;solid-color:#000000;solid-opacity:1;vector-effect:none;fill:#d7dbdd;fill-opacity:1;fill-rule:nonzero;stroke:none;stroke-width:12.5908;stroke-linecap:butt;stroke-linejoin:round;stroke-miterlimit:4;stroke-dasharray:none;stroke-dashoffset:0;stroke-opacity:1;color-rendering:auto;image-rendering:auto;shape-rendering:auto;text-rendering:auto;enable-background:accumulate;stop-color:#000000;stop-opacity:1"
               d="m 111.92969,237.31641 c -1.05503,0 -2.10336,0.1214 -3.1211,0.33984 -1.13167,0.2356 -2.22713,0.61438 -3.24804,1.10937 a 6.2960297,6.2960297 0 0 0 -0.0195,0.01 c -0.61202,0.29949 -1.21266,0.63158 -1.82422,0.99805 -0.65061,0.38617 -1.28979,0.80829 -1.92383,1.26367 -7.4e-4,5.3e-4 -0.001,0.001 -0.002,0.002 -0.64991,0.46432 -1.28426,0.95924 -1.898442,1.48242 a 6.2960297,6.2960297 0 0 0 -0.04297,0.0371 c -0.628663,0.54564 -1.226777,1.11771 -1.791015,1.71875 a 6.2960297,6.2960297 0 0 0 -0.04687,0.0508 c -0.634236,0.69061 -1.215215,1.43754 -1.72461,2.24024 a 6.2960297,6.2960297 0 0 0 -0.01758,0.0273 c -0.55873,0.89047 -1.036535,1.89273 -1.347656,3.00391 a 6.2960297,6.2960297 0 0 0 -0.04492,0.16797 c -0.08088,0.32326 -0.148676,0.64556 -0.207031,0.9668 a 6.2960297,6.2960297 0 0 0 -0.03711,0.23632 c -0.07421,0.51988 -0.103515,1.01552 -0.103515,1.49219 0,0.67392 0.07636,1.40388 0.273437,2.15234 0.105643,0.40162 0.238482,0.82879 0.449219,1.32032 A 6.2960297,6.2960297 0 0 0 95.28125,256 c 0.01098,0.0248 0.03759,0.0474 0.04883,0.0723 -0.164704,0.0819 -0.316153,0.0983 -0.482422,0.19921 -1.313028,0.7972 -2.374058,2.24245 -2.802734,3.45704 a 6.2960297,6.2960297 0 0 0 -0.07227,0.21875 c -0.245179,0.78456 -0.353515,1.59012 -0.353515,2.33398 0,1.18155 0.265017,2.46526 0.794921,3.5957 a 6.2960297,6.2960297 0 0 0 0.107422,0.2168 c 0.451481,0.87474 1.0446,1.66764 1.705078,2.32813 0.603415,0.6034 1.265426,1.11401 1.947266,1.53515 a 6.2960297,6.2960297 0 0 0 0.185547,0.10938 c 0.658716,0.3764 1.355812,0.68271 2.066406,0.92382 0.655279,0.23056 1.332925,0.4143 2.023441,0.53516 0.69113,0.12097 1.40446,0.18945 2.13086,0.18945 1.42798,0 2.87212,-0.22769 4.23437,-0.66992 1.21791,-0.39272 2.39307,-0.93222 3.48438,-1.60156 1.03798,-0.63663 2.00723,-1.3831 2.89453,-2.21484 0.83889,-0.77841 1.61551,-1.62189 2.3125,-2.5254 a 6.2960297,6.2960297 0 0 0 0.004,-0.006 c 0.34591,-0.44969 0.67863,-0.90759 0.99414,-1.375 a 6.2960297,6.2960297 0 0 0 0.0391,-0.0605 c 0.3592,-0.54546 0.68963,-1.10833 0.98828,-1.69141 a 6.2960297,6.2960297 0 0 0 0.0293,-0.0547 c 0.33971,-0.67942 0.63091,-1.39958 0.85351,-2.16015 0.26233,-0.89629 0.41407,-1.86829 0.41406,-2.85547 0,-1.42597 -0.3353,-3.01904 -1.08789,-4.44922 -0.0461,-0.0891 -0.1459,-0.14812 -0.19531,-0.23633 0.53279,-0.35505 1.15148,-0.65845 1.51758,-1.07031 a 6.2960297,6.2960297 0 0 0 0.21094,-0.25 c 0.63037,-0.78831 0.9981,-1.58461 1.22851,-2.27539 0.33701,-1.01042 0.39063,-1.81436 0.39063,-2.48828 0,-1.20592 -0.29128,-2.61892 -0.97461,-3.88281 -0.58009,-1.07756 -1.45606,-2.06605 -2.43359,-2.77344 -0.87888,-0.64012 -1.85067,-1.08221 -2.78516,-1.34961 -0.91792,-0.27063 -1.86359,-0.4082 -2.76953,-0.4082 z m 1.84961,2.97851 0.26172,0.0801 c -0.0141,-0.005 -0.0269,-0.001 -0.041,-0.006 -0.0746,-0.0228 -0.14554,-0.0527 -0.2207,-0.0742 z m 0.94726,0.31446 c 0.006,0.002 0.009,3.8e-4 0.0156,0.002 l 0.11133,0.041 c -0.0415,-0.0158 -0.0852,-0.0275 -0.12696,-0.043 z m -7.5625,0.16406 c -0.009,0.003 -0.0167,0.008 -0.0254,0.0117 -0.005,0.002 -0.0108,0.002 -0.0156,0.004 z m 4.51172,6.32812 0.0977,0.0293 c -0.0184,-0.006 -0.0382,-0.002 -0.0566,-0.008 -0.0144,-0.004 -0.0267,-0.0172 -0.041,-0.0215 z m 4.99805,5.38672 -0.22071,0.0937 c 0.0388,-0.0155 0.0573,-0.0502 0.0957,-0.0664 0.0393,-0.0165 0.0862,-0.0101 0.125,-0.0273 z m -1.47071,8.56055 -0.0312,0.0547 c 0.003,-0.006 0.006,-0.0155 0.01,-0.0215 0.007,-0.0119 0.0148,-0.0212 0.0215,-0.0332 z m -2.3496,3.22851 -0.0664,0.0762 c 0.0172,-0.0195 0.0298,-0.0391 0.0469,-0.0586 0.006,-0.007 0.0139,-0.0109 0.0195,-0.0176 z"
               id="path1603" />
          </g>
          <g
             id="g1605"
             style="opacity:1">
            <path
               style="color:#000000;font-style:normal;font-variant:normal;font-weight:normal;font-stretch:normal;font-size:27.4672px;line-height:1.25;font-family:'MV Boli';-inkscape-font-specification:'MV Boli, Normal';font-variant-ligatures:normal;font-variant-position:normal;font-variant-caps:normal;font-variant-numeric:normal;font-variant-alternates:normal;font-variant-east-asian:normal;font-feature-settings:normal;font-variation-settings:normal;text-indent:0;text-align:start;text-decoration:none;text-decoration-line:none;text-decoration-style:solid;text-decoration-color:#000000;letter-spacing:normal;word-spacing:normal;text-transform:none;writing-mode:lr-tb;direction:ltr;text-orientation:mixed;dominant-baseline:auto;baseline-shift:baseline;text-anchor:start;white-space:normal;shape-padding:0;shape-margin:0;inline-size:0;clip-rule:nonzero;display:inline;overflow:visible;visibility:visible;isolation:auto;mix-blend-mode:normal;color-interpolation:sRGB;color-interpolation-filters:linearRGB;solid-color:#000000;solid-opacity:1;vector-effect:none;fill:#000000;fill-opacity:1;fill-rule:nonzero;stroke:none;stroke-width:12.5908;stroke-linecap:butt;stroke-linejoin:round;stroke-miterlimit:4;stroke-dasharray:none;stroke-dashoffset:0;stroke-opacity:1;color-rendering:auto;image-rendering:auto;shape-rendering:auto;text-rendering:auto;enable-background:accumulate;stop-color:#000000;stop-opacity:1"
               d="m 127.07091,264.84214 c -0.18776,0 -0.35317,-0.0358 -0.49623,-0.10729 -0.14306,-0.0715 -0.26377,-0.16542 -0.36212,-0.28165 -0.0894,-0.11623 -0.16094,-0.25035 -0.21459,-0.40235 -0.0447,-0.152 -0.067,-0.304 -0.067,-0.456 0,-0.13411 0.0358,-0.31741 0.10729,-0.54988 0.0715,-0.24141 0.16094,-0.50965 0.26823,-0.8047 0.11624,-0.29506 0.24142,-0.60353 0.37553,-0.92541 0.13412,-0.32188 0.26377,-0.63035 0.38894,-0.92541 0.12518,-0.29506 0.23247,-0.56776 0.32188,-0.81811 0.0894,-0.25035 0.152,-0.44706 0.18777,-0.59012 0.0357,-0.16094 0.0804,-0.35317 0.13411,-0.5767 0.0537,-0.22353 0.11179,-0.46495 0.17436,-0.72424 0.0715,-0.26823 0.13858,-0.54541 0.20117,-0.83152 0.0715,-0.29506 0.14306,-0.59012 0.21459,-0.88518 -0.12517,0.0268 -0.28164,0.0536 -0.46941,0.0805 -0.17882,0.0179 -0.37105,0.0357 -0.5767,0.0536 -0.29506,0.0268 -0.58565,0.067 -0.87177,0.12071 -0.28611,0.0537 -0.58117,0.11625 -0.88517,0.18776 -0.29506,0.0626 -0.60353,0.13413 -0.92541,0.21459 -0.32188,0.0715 -0.66611,0.14753 -1.0327,0.228 -0.53647,0.11623 -1.07294,0.24588 -1.60941,0.38894 -0.53647,0.14305 -1.09529,0.21458 -1.67646,0.21458 -0.17883,0 -0.34424,-0.0447 -0.49623,-0.13411 -0.152,-0.0983 -0.32188,-0.16988 -0.50965,-0.21459 -0.17882,0.28611 -0.3487,0.59458 -0.50965,0.92541 -0.16094,0.32188 -0.30847,0.65717 -0.44258,1.00588 -0.13412,0.33976 -0.25483,0.67952 -0.36212,1.01929 -0.10729,0.33082 -0.20117,0.64376 -0.28164,0.93882 -0.0447,0.16094 -0.085,0.37106 -0.12071,0.63035 -0.0268,0.25035 -0.0536,0.50965 -0.0805,0.77788 -0.0268,0.25929 -0.0536,0.50964 -0.0805,0.75105 -0.0268,0.24141 -0.0536,0.43365 -0.0805,0.57671 -0.0268,0.13411 -0.0804,0.26823 -0.16094,0.40235 -0.0805,0.12517 -0.17883,0.24141 -0.29506,0.3487 -0.11623,0.1073 -0.24588,0.19224 -0.38894,0.25483 -0.14306,0.0715 -0.28612,0.10729 -0.42917,0.10729 -0.25035,0 -0.456,-0.0715 -0.61694,-0.21459 -0.152,-0.152 -0.27718,-0.33529 -0.37553,-0.54988 -0.0894,-0.22353 -0.152,-0.46494 -0.18777,-0.72423 -0.0357,-0.25929 -0.0536,-0.49623 -0.0536,-0.71082 0,-0.54541 0.0671,-1.10871 0.20117,-1.68988 0.13412,-0.59011 0.31294,-1.1847 0.53647,-1.78376 0.23247,-0.60799 0.50071,-1.21599 0.80471,-1.82399 0.31294,-0.61694 0.64823,-1.22941 1.00587,-1.83741 0.29506,-0.54541 0.66165,-1.17576 1.09976,-1.89105 0.43812,-0.71529 0.92541,-1.44846 1.46188,-2.19952 0.54541,-0.76 1.13106,-1.50211 1.75694,-2.22634 0.63482,-0.72423 1.29199,-1.368 1.97152,-1.93129 0.67953,-0.57223 1.37694,-1.0327 2.09223,-1.38141 0.71529,-0.34871 1.42611,-0.52306 2.13246,-0.52306 0.74211,0 1.35905,0.13412 1.85082,0.40236 0.5007,0.26823 0.89858,0.63035 1.19364,1.08634 0.29506,0.456 0.50071,0.988 0.61694,1.596 0.12517,0.608 0.18776,1.25176 0.18776,1.93129 0,0.59905 -0.0402,1.21599 -0.1207,1.85081 -0.0715,0.63483 -0.16541,1.25624 -0.28165,1.86423 -0.10729,0.608 -0.228,1.19365 -0.36211,1.75694 -0.12518,0.56329 -0.24142,1.07294 -0.34871,1.52893 l -0.46941,1.824 c -0.0179,0.0537 -0.0536,0.16096 -0.10729,0.32188 -0.0447,0.16094 -0.10732,0.35764 -0.18777,0.59011 -0.0715,0.22353 -0.15647,0.46942 -0.25482,0.73765 -0.0894,0.25929 -0.18329,0.51859 -0.28164,0.77788 -0.0894,0.25035 -0.17883,0.48282 -0.26824,0.69741 -0.0805,0.21459 -0.152,0.38894 -0.21459,0.52305 l 0.0134,-0.0134 c -0.0626,0.23247 -0.12966,0.46941 -0.20118,0.71082 -0.0715,0.24141 -0.16988,0.46047 -0.29506,0.65718 -0.12517,0.18776 -0.28611,0.34423 -0.48282,0.46941 -0.19671,0.11623 -0.45153,0.17435 -0.76447,0.17435 z m 0.684,-16.79147 c -0.40235,0 -0.80471,0.0849 -1.20706,0.25482 -0.39341,0.16094 -0.78234,0.37553 -1.16681,0.64376 -0.38447,0.26824 -0.76,0.58118 -1.12659,0.93882 -0.35765,0.35765 -0.70188,0.72424 -1.0327,1.09977 -0.32188,0.37553 -0.62588,0.75552 -0.912,1.13999 -0.28611,0.37553 -0.54541,0.72423 -0.77788,1.04612 -0.0357,0.0537 -0.0849,0.12519 -0.14753,0.21458 -0.0537,0.0805 -0.11178,0.17436 -0.17435,0.28165 -0.0537,0.0984 -0.10731,0.20565 -0.16094,0.32188 -0.0537,0.10729 -0.0984,0.20565 -0.13412,0.29506 h 1.38141 c 0.50071,0 1.07294,-0.0358 1.7167,-0.1073 0.64376,-0.0715 1.27858,-0.15647 1.90446,-0.25482 0.63483,-0.0984 1.216,-0.19671 1.74353,-0.29506 0.52753,-0.10729 0.92541,-0.18776 1.19364,-0.24141 0.0358,-0.11623 0.0671,-0.2727 0.0939,-0.46941 0.0357,-0.1967 0.067,-0.41576 0.0939,-0.65717 0.0268,-0.24141 0.0447,-0.49624 0.0537,-0.76447 0.0179,-0.27717 0.0268,-0.55882 0.0268,-0.84494 0,-0.23247 -0.009,-0.49623 -0.0268,-0.79129 -0.0179,-0.304 -0.0715,-0.59012 -0.16094,-0.85835 -0.0894,-0.26823 -0.228,-0.49176 -0.41576,-0.67058 -0.17883,-0.18777 -0.43365,-0.28165 -0.76447,-0.28165 z"
               id="path1607" />
            <path
               style="color:#000000;font-style:normal;font-variant:normal;font-weight:normal;font-stretch:normal;font-size:27.4672px;line-height:1.25;font-family:'MV Boli';-inkscape-font-specification:'MV Boli, Normal';font-variant-ligatures:normal;font-variant-position:normal;font-variant-caps:normal;font-variant-numeric:normal;font-variant-alternates:normal;font-variant-east-asian:normal;font-feature-settings:normal;font-variation-settings:normal;text-indent:0;text-align:start;text-decoration:none;text-decoration-line:none;text-decoration-style:solid;text-decoration-color:#000000;letter-spacing:normal;word-spacing:normal;text-transform:none;writing-mode:lr-tb;direction:ltr;text-orientation:mixed;dominant-baseline:auto;baseline-shift:baseline;text-anchor:start;white-space:normal;shape-padding:0;shape-margin:0;inline-size:0;clip-rule:nonzero;display:inline;overflow:visible;visibility:visible;isolation:auto;mix-blend-mode:normal;color-interpolation:sRGB;color-interpolation-filters:linearRGB;solid-color:#000000;solid-opacity:1;vector-effect:none;fill:#d7dbdd;fill-opacity:1;fill-rule:nonzero;stroke:none;stroke-width:12.5908;stroke-linecap:butt;stroke-linejoin:round;stroke-miterlimit:4;stroke-dasharray:none;stroke-dashoffset:0;stroke-opacity:1;color-rendering:auto;image-rendering:auto;shape-rendering:auto;text-rendering:auto;enable-background:accumulate;stop-color:#000000;stop-opacity:1"
               d="m 127.84961,239.05859 c -1.74231,0 -3.4436,0.45378 -4.89258,1.16016 -1.22312,0.59627 -2.34674,1.35234 -3.37305,2.21484 -0.94976,0.78954 -1.83729,1.66198 -2.66601,2.60743 a 6.2960297,6.2960297 0 0 0 -0.0293,0.0332 c -0.74668,0.86401 -1.44922,1.75472 -2.10742,2.67187 a 6.2960297,6.2960297 0 0 0 -0.008,0.0117 c -0.61475,0.86065 -1.1857,1.71597 -1.70899,2.57031 -0.45236,0.73857 -0.84025,1.40815 -1.1914,2.05079 -0.40905,0.6982 -0.79772,1.40462 -1.16016,2.11914 a 6.2960297,6.2960297 0 0 0 -0.0156,0.0312 c -0.39232,0.78463 -0.7453,1.58146 -1.05469,2.39062 a 6.2960297,6.2960297 0 0 0 -0.0176,0.0488 c -0.31366,0.84062 -0.57247,1.69699 -0.77148,2.56836 -0.23114,1.0016 -0.36329,2.04406 -0.36329,3.10547 0,0.56403 0.0455,1.07835 0.11329,1.57031 0.0993,0.72017 0.28446,1.46898 0.57812,2.20313 a 6.2960297,6.2960297 0 0 0 0.12305,0.28515 c 0.37558,0.81945 0.92714,1.65761 1.64648,2.37695 a 6.2960297,6.2960297 0 0 0 0.26953,0.25391 c 1.37241,1.21994 3.34935,1.80469 4.79883,1.80469 1.14486,0 2.23714,-0.32076 3.11524,-0.74024 0.71493,-0.33561 1.40534,-0.76731 1.97265,-1.29101 0.15136,-0.13972 0.27103,-0.33798 0.41602,-0.49414 0.64368,0.72726 1.43164,1.35154 2.23633,1.7539 1.12839,0.56418 2.32338,0.77149 3.31054,0.77149 a 6.2960297,6.2960297 0 0 0 1.34961,-0.14649 c 0.82037,-0.12867 1.69324,-0.35638 2.61719,-0.90234 a 6.2960297,6.2960297 0 0 0 0.17773,-0.10937 c 0.8892,-0.56587 1.73055,-1.37023 2.3418,-2.28711 a 6.2960297,6.2960297 0 0 0 0.0723,-0.11329 c 0.45988,-0.72265 0.79614,-1.49406 1.01953,-2.24804 0.0524,-0.17677 0.0994,-0.35214 0.14844,-0.52735 0.0227,-0.0581 0.0542,-0.12353 0.0762,-0.18164 0.11192,-0.27397 0.21909,-0.55056 0.32031,-0.83203 0.0975,-0.25881 0.19244,-0.51722 0.2832,-0.77734 l 0.002,-0.008 c 0.10911,-0.29783 0.20874,-0.58442 0.30273,-0.87305 0.10458,-0.30343 0.20044,-0.59484 0.29297,-0.92774 l -0.0937,0.30665 c 0.0538,-0.16125 0.0886,-0.26962 0.10742,-0.32618 a 6.2960297,6.2960297 0 0 0 0.125,-0.41797 l 0.46875,-1.82421 a 6.2960297,6.2960297 0 0 0 0.0312,-0.12696 c 0.1127,-0.47896 0.23208,-1.00576 0.35938,-1.57812 0.15178,-0.64296 0.28654,-1.29941 0.40625,-1.96875 l 0.002,-0.01 c 0.14225,-0.74537 0.25612,-1.50084 0.34375,-2.26367 0.10993,-0.8734 0.16992,-1.74865 0.16992,-2.62305 0,-1.04656 -0.10223,-2.09991 -0.3125,-3.14257 -0.24796,-1.27874 -0.7264,-2.6031 -1.50391,-3.80469 -0.86666,-1.33937 -2.13692,-2.47424 -3.48437,-3.20117 -1.6537,-0.89636 -3.34958,-1.16407 -4.84375,-1.16407 z m -3.68555,3.41993 c -0.015,0.006 -0.0261,0.0172 -0.041,0.0234 -0.007,0.003 -0.0165,9.7e-4 -0.0234,0.004 z m 8.69727,1.29492 0.21679,0.21679 c -0.0383,-0.0402 -0.0955,-0.047 -0.13476,-0.0859 -0.0381,-0.0379 -0.0431,-0.0938 -0.082,-0.13086 z m -17.44336,7.40234 c -0.012,0.024 -0.0232,0.0557 -0.0352,0.0801 -0.0154,0.0327 -0.0358,0.0671 -0.0508,0.0996 z m 19.9707,0.5332 -0.01,0.19336 c 0.002,-0.0338 0.002,-0.0677 0.004,-0.10156 0.001,-0.0305 0.005,-0.0613 0.006,-0.0918 z m -0.20312,2.06055 -0.043,0.27539 c 0.014,-0.0771 0.0206,-0.1504 0.0332,-0.22656 0.002,-0.0134 0.008,-0.0355 0.01,-0.0488 z m -22.07422,1.44336 c -0.008,0.0152 -0.012,0.0317 -0.0195,0.0469 -0.003,0.005 -0.007,0.0101 -0.01,0.0156 z m 3.72461,7.60352 c 0.35898,0.19099 0.78129,0.18911 1.17968,0.32031 l -0.22265,0.0918 c -0.29796,-0.0709 -0.63064,-0.25376 -0.95703,-0.41211 z"
               id="path1609" />
          </g>
        </g>
        <text
           xml:space="preserve"
           id="text3755"
           style="font-style:normal;font-weight:normal;font-size:27.4672px;line-height:1.25;font-family:sans-serif;white-space:pre;shape-inside:url(#rect3757);fill:#000000;fill-opacity:1;stroke:none;stroke-width:11.2193;stroke-linecap:butt;stroke-linejoin:round;stroke-miterlimit:4;stroke-dasharray:none;"
           transform="matrix(1.836172,0,0,1.836172,-78.963163,-186.00867)"><tspan
             x="76.052734"
             y="264.69461"><tspan
               style="font-style:normal;font-variant:normal;font-weight:normal;font-stretch:normal;font-size:27.4672px;font-family:'MV Boli';-inkscape-font-specification:'MV Boli, Normal';font-variant-ligatures:normal;font-variant-caps:normal;font-variant-numeric:normal;font-variant-east-asian:normal;stroke-width:11.2193;stroke-linecap:butt;stroke-linejoin:round;stroke-miterlimit:4;stroke-dasharray:none">OSA</tspan></tspan></text>
      </g>
      <g
         id="line2d_10"
         transform="matrix(1.4291385,0,0,1.4355422,-268.12632,-224.39124)"
         style="fill:none;fill-opacity:1;stroke-width:10.7809;stroke-miterlimit:4;stroke-dasharray:none">
        <path
           d="m 234.67653,217.9984 -1.29584,-2.77785 -1.07893,-1.85267 -0.43134,-0.64495 -0.64697,-0.84075 -0.431,-0.27468 -0.43086,-0.51847 -0.64604,-0.4922 -0.43053,-0.31515 -0.43039,-0.0731 -0.43026,-0.13302 -1.07506,-0.18967 -0.43,0.14954 -1.5032,0.37811 -1.71593,1.05626 -0.42865,0.33568 -0.64272,0.28026 -1.71267,0.15965 -0.64162,-0.23065 -1.0687,-0.40278 -1.06808,-0.69965 -0.42691,-0.27099 -0.85343,-0.9087 -2.5571,-3.1147 -2.76502,-2.48053 -0.63724,-0.35608 -0.42466,-0.065 -0.84893,-0.23989 -0.63656,0.049 -0.42407,0.14849 -0.42394,0.21083 -0.21192,0.0474 -0.84735,0.80351 -1.05844,1.13736 -0.42315,0.3829 -0.63469,0.86146 -1.26807,1.44052 -1.26689,1.99338 -1.89834,2.54065 -0.84276,0.6563 -0.84225,0.20892 -0.63134,-0.22166 -0.42073,-0.2115 -0.63085,-0.63794 -0.84089,-1.03567 -0.42015,-0.50179 -1.46949,-2.25888 -0.41956,-0.558 -1.46745,-2.14674 -0.62863,-0.63895 -0.62813,-0.82803 -0.83705,-0.70946 -1.67257,-1.33426 -1.25328,-0.3339 -0.6261,0.18532 -1.25133,0.12965 -0.83358,0.31618 -1.04146,0.42342 -1.04046,1.12415 -0.41596,0.64279 -0.83153,1.99459 -1.24634,4.04689 -0.83046,3.71568 -0.62236,3.14815 -0.82936,4.89607 -0.82885,6.39188 -0.41424,3.7467 -0.82809,10.77545 -1.24139,25.77114 -0.20676,1.07747 -0.20672,0.30779 -0.20669,-1.65519 -0.41328,-7.91835 -1.03266,-20.98996 -0.61921,-8.54703 -0.82518,-8.02463 -1.03097,-7.05398 -1.02997,-4.87702 -1.44064,-5.31235 -0.82274,-2.22843 -0.61656,-1.63506 -0.61629,-1.17615 -0.82127,-1.24059 -0.41045,-0.47303 -1.2306,-0.371 -0.61508,0.0692 -1.63829,1.19332 -0.8184,1.24604 -1.02229,1.93913 -0.61321,1.46725 -0.61272,1.36227 -0.61244,1.76283 -0.61216,1.95891 -1.83481,6.58433 -0.4076,0.91007 -0.20365,0.12509 -0.40721,-0.12517 -0.20356,-0.23278 -0.40702,-1.05742 -0.81368,-3.58255 -1.42274,-6.93162 -1.62434,-6.32626 -0.81132,-2.5246 -1.01347,-2.66099 -0.81022,-1.88986 -1.01229,-1.71618 -0.40462,-0.59936 -0.80887,-0.66643 -0.80838,-0.44617 -0.40401,-0.13461 -0.60578,-0.0699 -1.21093,-0.229 -0.40334,0.1137 -1.0078,-0.108 -0.4029,0.1174 -0.40279,0.18755 -1.40899,0.0916 -0.60331,-0.0363 -1.0049,-0.65958 -0.60259,-0.57679 -0.6023,-0.90929 -1.40453,-2.35351 -1.00218,-2.03631 -2.00209,-4.07241 -1.39987,-2.71793 -1.99697,-2.79255 -1.59541,-1.58869 -0.39875,-0.16791 -0.39843,-0.33101 -0.99556,-0.19329 -0.59697,-0.007 -0.39784,-0.0573 -0.79531,0.25338 -1.19226,0.39704 -0.99257,0.59016 -0.79352,0.45738 -0.79304,0.53442 -0.59447,0.31982 -2.17763,1.08811 -0.79091,0.22263 -0.59286,-0.0172 -0.79027,0.0961 -2.17027,-0.38885 -0.59127,-0.1284 -3.54225,-0.64274 -0.58942,0.0279 -0.58915,-0.0267 -1.37386,0.40435 -0.39221,0.002 -1.37181,0.69734 -0.39169,0.1 -0.58731,0.54559 -0.39158,0.18238 -0.58688,0.39758 -0.3911,0.26662 -0.390981,0.43579 -0.781619,0.54427 -4.680144,3.89547 -0.389242,0.19207 -1.361629,1.09551 -0.388721,0.15213 -1.359616,1.01382 -0.582259,0.25208 -0.582,0.47307 -0.387856,0.10596 -0.387935,0.18956 -0.387625,0.0594 -0.581223,0.34309 -0.774562,0.0735 -0.967557,0.24749 -0.967032,-0.14341 -0.772955,-0.053 -0.772498,-0.33521 -0.77204,-0.21064 -2.120945,-1.38554 -0.577789,-0.39093 -0.769985,-0.36736 -0.961842,-0.46818 -0.576764,-0.14221 -0.5767,-0.20953 -0.76828,-0.0184 -0.575912,0.0733 -0.3838,0.0542 -0.575487,0.36484 -0.76692,0.48652 -0.38329,0.30169 -1.149383,1.53967 -0.765563,1.26471 -1.720867,3.97959 -1.527934,5.03771 -1.525946,6.83764 -1.143279,6.4969 -2.283726,13.74812 -0.380197,1.23763 -0.380086,0.4415 -0.190001,0.0331 -0.189973,-0.38509 v 0"
           clip-path="url(#pc5976ab345)"
           style="fill:none;fill-opacity:1;stroke:#000000;stroke-width:10.7809;stroke-linecap:round;stroke-miterlimit:4;stroke-dasharray:none"
           id="path205" />
      </g>
    </g>
  </g>
  <defs
     id="defs678">
    <clipPath
       id="pc5976ab345">
      <rect
         x="54.063358"
         y="166.04977"
         width="189.21379"
         height="110.19263"
         id="rect669" />
    </clipPath>
    <clipPath
       id="ped50f29186">
      <rect
         x="309.31277"
         y="166.04977"
         width="189.21379"
         height="110.19263"
         id="rect672" />
    </clipPath>
    <clipPath
       id="p43f490c5eb">
      <rect
         x="54.063358"
         y="13.65336"
         width="444.4632"
         height="110.19263"
         id="rect675" />
    </clipPath>
  </defs>
</svg>
